<?xml version="1.0" encoding="utf-8"?>
<!-- Generator: Adobe Illustrator 23.1.0, SVG Export Plug-In . SVG Version: 6.00 Build 0)  -->
<svg version="1.1" id="Layer_1" xmlns="http://www.w3.org/2000/svg" xmlns:xlink="http://www.w3.org/1999/xlink" x="0px" y="0px"
	 viewBox="0 0 57.5 21" style="enable-background:new 0 0 57.5 21;" xml:space="preserve">
<style type="text/css">
	.st0{fill:#F1F1F2;stroke:#808184;stroke-miterlimit:10;}
	.st1{fill:#DA4536;}
	.st2{fill:#404041;}
</style>
<g>
	<g>
		<path class="st0" d="M57.5,18.9c0,1.1-0.9,2.1-1.9,2.1H1.9C0.9,21,0,20.1,0,18.9V2.1C0,0.9,0.9,0,1.9,0h53.7
			c1.1,0,1.9,0.9,1.9,2.1V18.9z"/>
		<g>
			<polygon class="st1" points="22,8.1 20.3,8.1 20.3,9.9 18.5,9.9 18.5,11.6 20.3,11.6 20.3,13.3 22,13.3 22,11.6 23.7,11.6 
				23.7,9.9 22,9.9 			"/>
			<path class="st1" d="M10.2,9.9v2.4h3.4c-0.3,1.5-1.5,2.5-3.4,2.5c-2,0-3.7-1.7-3.7-3.8s1.6-3.8,3.7-3.8c0.9,0,1.8,0.3,2.4,0.9
				l1.8-1.8c-1.1-1-2.5-1.6-4.2-1.6C6.8,4.8,4,7.6,4,11s2.8,6.2,6.2,6.2c3.6,0,6-2.5,6-6.1c0-0.5-0.1-0.9-0.1-1.3H10.2z"/>
		</g>
		<g>
			<path class="st2" d="M27.9,12.3l1.4-0.2c0.1,0.3,0.2,0.5,0.4,0.6c0.2,0.1,0.4,0.2,0.8,0.2c0.4,0,0.6-0.1,0.8-0.2
				c0.1-0.1,0.2-0.2,0.2-0.4c0-0.1,0-0.2-0.1-0.3c-0.1-0.1-0.2-0.1-0.5-0.2c-1.1-0.2-1.8-0.5-2.1-0.7c-0.4-0.3-0.6-0.7-0.6-1.2
				c0-0.5,0.2-0.8,0.5-1.1c0.4-0.3,0.9-0.5,1.7-0.5c0.7,0,1.2,0.1,1.6,0.3s0.6,0.6,0.7,1l-1.3,0.2c-0.1-0.2-0.2-0.4-0.3-0.5
				c-0.2-0.1-0.4-0.2-0.7-0.2c-0.4,0-0.6,0.1-0.8,0.2c-0.1,0.1-0.2,0.2-0.2,0.3c0,0.1,0,0.2,0.1,0.3c0.1,0.1,0.6,0.2,1.3,0.4
				c0.7,0.2,1.2,0.4,1.5,0.6c0.3,0.2,0.4,0.6,0.4,1c0,0.5-0.2,0.9-0.6,1.2c-0.4,0.3-1,0.5-1.8,0.5c-0.7,0-1.3-0.1-1.7-0.4
				C28.3,13.2,28,12.8,27.9,12.3z"/>
			<path class="st2" d="M35.4,6.6v2.6c0.4-0.5,1-0.8,1.6-0.8c0.3,0,0.6,0.1,0.9,0.2c0.3,0.1,0.4,0.3,0.6,0.5
				c0.1,0.2,0.2,0.4,0.3,0.6c0,0.2,0.1,0.6,0.1,1v3.1h-1.4v-2.8c0-0.5,0-0.9-0.1-1c-0.1-0.1-0.1-0.3-0.3-0.4
				c-0.1-0.1-0.3-0.1-0.5-0.1c-0.2,0-0.4,0.1-0.6,0.2c-0.2,0.1-0.3,0.3-0.4,0.5c-0.1,0.2-0.1,0.6-0.1,1v2.6H34V6.6H35.4z"/>
			<path class="st2" d="M41.2,10.2L39.9,10c0.1-0.5,0.4-0.9,0.7-1.1c0.3-0.2,0.9-0.4,1.5-0.4c0.6,0,1.1,0.1,1.4,0.2
				c0.3,0.1,0.5,0.3,0.6,0.6c0.1,0.2,0.2,0.6,0.2,1.2l0,1.6c0,0.5,0,0.8,0.1,1c0,0.2,0.1,0.5,0.2,0.7h-1.4c0-0.1-0.1-0.2-0.1-0.4
				c0-0.1,0-0.1,0-0.2c-0.2,0.2-0.5,0.4-0.8,0.5c-0.3,0.1-0.6,0.2-0.9,0.2c-0.5,0-1-0.1-1.3-0.4c-0.3-0.3-0.5-0.7-0.5-1.1
				c0-0.3,0.1-0.6,0.2-0.8c0.1-0.2,0.3-0.4,0.6-0.5c0.3-0.1,0.6-0.2,1.1-0.3c0.6-0.1,1.1-0.2,1.3-0.3v-0.1c0-0.3-0.1-0.5-0.2-0.6
				c-0.1-0.1-0.4-0.2-0.7-0.2c-0.2,0-0.4,0-0.6,0.1S41.2,9.9,41.2,10.2z M43,11.3c-0.2,0.1-0.5,0.1-0.8,0.2
				c-0.4,0.1-0.6,0.2-0.8,0.2c-0.2,0.1-0.3,0.3-0.3,0.5c0,0.2,0.1,0.4,0.2,0.5c0.1,0.1,0.3,0.2,0.6,0.2c0.2,0,0.5-0.1,0.7-0.2
				c0.2-0.1,0.3-0.3,0.3-0.5c0-0.1,0.1-0.3,0.1-0.7V11.3z"/>
			<path class="st2" d="M47,13.8h-1.4V8.6h1.3v0.7c0.2-0.4,0.4-0.6,0.6-0.7c0.2-0.1,0.4-0.2,0.6-0.2c0.3,0,0.6,0.1,0.9,0.3l-0.4,1.2
				c-0.2-0.2-0.4-0.2-0.6-0.2c-0.2,0-0.4,0.1-0.5,0.2c-0.1,0.1-0.2,0.3-0.3,0.6c-0.1,0.3-0.1,0.9-0.1,1.7V13.8z"/>
			<path class="st2" d="M52.7,12.2l1.4,0.2c-0.2,0.5-0.5,0.9-0.8,1.2c-0.4,0.3-0.9,0.4-1.4,0.4c-0.9,0-1.6-0.3-2-0.9
				c-0.3-0.5-0.5-1.1-0.5-1.8c0-0.9,0.2-1.5,0.7-2c0.5-0.5,1-0.7,1.7-0.7c0.8,0,1.4,0.3,1.8,0.8c0.4,0.5,0.7,1.3,0.6,2.4h-3.5
				c0,0.4,0.1,0.7,0.3,1c0.2,0.2,0.5,0.3,0.8,0.3c0.2,0,0.4-0.1,0.5-0.2C52.5,12.6,52.6,12.4,52.7,12.2z M52.7,10.8
				c0-0.4-0.1-0.7-0.3-0.9c-0.2-0.2-0.4-0.3-0.7-0.3c-0.3,0-0.6,0.1-0.7,0.3c-0.2,0.2-0.3,0.5-0.3,0.9H52.7z"/>
		</g>
	</g>
</g>
</svg>
